<?xml version="1.0" encoding="UTF-8"?>
<svg xmlns="http://www.w3.org/2000/svg" xmlns:xlink="http://www.w3.org/1999/xlink" width="365px" height="420px" viewBox="0 0 365 419" version="1.1">
<g id="surface1">
<path style=" stroke:none;fill-rule:evenodd;fill:rgb(1.568628%,1.568628%,1.568628%);fill-opacity:1;" d="M 247.089844 0.230469 C 241.480469 1.078125 240.371094 1.160156 237.925781 0.902344 C 236.570312 0.761719 232.824219 0.640625 229.59375 0.632812 C 223.011719 0.617188 220.058594 0.9375 215.257812 2.183594 C 211.109375 3.261719 210.941406 3.285156 205.746094 3.46875 C 198.894531 3.703125 196.605469 4.234375 193.949219 6.191406 C 192.472656 7.277344 192.113281 8.25 192.128906 11.128906 C 192.136719 13.164062 192.265625 13.9375 193 16.339844 L 193.855469 19.160156 L 193.359375 28.902344 L 192.859375 38.644531 L 193.433594 42.832031 C 193.925781 46.445312 194.003906 47.976562 194.003906 53.960938 C 194.003906 61.410156 193.804688 63.457031 192.523438 69.15625 C 191.730469 72.675781 191.769531 73.703125 192.960938 80.636719 C 193.753906 85.261719 193.929688 86.863281 193.945312 89.613281 C 193.964844 92.550781 193.902344 93.136719 193.429688 94.339844 C 192.671875 96.269531 191.40625 97.757812 189.097656 99.425781 C 184.679688 102.617188 183.4375 104.019531 182.558594 106.808594 C 182.121094 108.199219 182.019531 109.074219 182.019531 111.511719 C 182.019531 114.230469 182.078125 114.621094 182.640625 115.816406 C 183.515625 117.667969 184.433594 118.6875 185.222656 118.6875 C 185.578125 118.6875 186.695312 119.160156 187.707031 119.738281 C 190.527344 121.339844 195.25 122.734375 196.8125 122.421875 C 197.199219 122.34375 198.722656 121.335938 200.195312 120.179688 C 203.488281 117.589844 205.035156 116.476562 206.046875 115.960938 C 206.617188 115.671875 207.0625 115.101562 207.699219 113.835938 C 208.519531 112.210938 208.585938 111.917969 208.78125 108.878906 C 209.519531 97.523438 209.859375 95.628906 211.914062 91.289062 L 212.9375 89.136719 L 213.054688 76.109375 L 213.175781 63.085938 L 214.371094 62.78125 C 215.03125 62.613281 216.164062 62.402344 216.890625 62.316406 C 217.617188 62.226562 218.324219 62.066406 218.460938 61.957031 C 218.601562 61.847656 219.734375 61.863281 220.976562 61.996094 C 223.285156 62.242188 225.996094 62.09375 225.996094 61.726562 C 225.996094 61.613281 226.402344 61.445312 226.898438 61.355469 C 227.390625 61.265625 228.050781 60.988281 228.367188 60.746094 C 228.679688 60.5 229.117188 60.300781 229.335938 60.300781 C 229.558594 60.300781 229.851562 60.1875 229.988281 60.050781 C 230.128906 59.910156 231.6875 59.652344 233.453125 59.472656 C 235.21875 59.296875 237.148438 58.988281 237.742188 58.792969 C 238.335938 58.597656 239.457031 58.371094 240.234375 58.289062 C 241.011719 58.203125 242.414062 57.859375 243.347656 57.527344 C 244.285156 57.191406 245.589844 56.820312 246.25 56.703125 C 250.710938 55.917969 254.269531 54.988281 255.316406 54.34375 C 255.765625 54.066406 256.277344 53.839844 256.453125 53.839844 C 257.179688 53.839844 260.878906 51.734375 261.828125 50.78125 C 262.390625 50.210938 263.746094 49.300781 264.855469 48.746094 C 268.628906 46.851562 271.253906 44.359375 272.710938 41.277344 C 273.730469 39.121094 273.9375 37.902344 273.917969 34.160156 C 273.902344 30.992188 273.953125 30.585938 274.628906 28.476562 C 275.726562 25.058594 275.765625 24.382812 274.996094 22.132812 C 273.039062 16.421875 270.265625 12.542969 265.183594 8.429688 C 262.9375 6.613281 254.679688 1.101562 253.40625 0.570312 C 252.363281 0.132812 248.9375 -0.0507812 247.089844 0.230469 M 111.222656 0.496094 C 110.375 0.605469 109.082031 1 108.34375 1.367188 C 107.246094 1.914062 106.90625 2.242188 106.433594 3.191406 C 105.914062 4.234375 105.882812 4.476562 106.105469 5.585938 C 106.246094 6.265625 106.632812 7.574219 106.96875 8.496094 C 108.25 12.019531 108.652344 14.765625 108.65625 19.980469 C 108.660156 25.4375 108.480469 26.910156 106.53125 37.570312 C 104.707031 47.535156 104.390625 50.542969 104.621094 55.875 C 104.953125 63.609375 104.929688 63.863281 103.410156 69.753906 C 102.261719 74.195312 102.027344 75.453125 101.921875 77.804688 L 101.792969 80.59375 L 102.652344 82.59375 C 104.113281 85.992188 104.328125 87.34375 104.152344 92.046875 C 103.980469 96.675781 104.25 98.667969 105.4375 101.5 C 107.503906 106.429688 111.097656 109.9375 121.269531 116.953125 C 123.179688 118.269531 125.636719 120.054688 126.722656 120.917969 C 128.898438 122.644531 130.339844 123.285156 133.609375 123.988281 C 136.160156 124.535156 142.375 124.644531 145.832031 124.207031 C 150.417969 123.621094 155.53125 122.296875 158.738281 120.859375 C 161.332031 119.695312 165.949219 116.621094 168.011719 114.683594 C 172.300781 110.660156 174.363281 106.417969 174.972656 100.398438 C 175.164062 98.476562 175.460938 97.152344 176.042969 95.570312 C 177.742188 90.980469 179.203125 84.871094 179.886719 79.523438 C 180.398438 75.488281 180.410156 67.332031 179.902344 64.96875 C 178.824219 59.929688 178.769531 51.585938 179.753906 41.757812 C 180.378906 35.523438 180.511719 27.097656 180.035156 23.859375 C 179.601562 20.929688 178.660156 17.34375 177.925781 15.847656 C 177.097656 14.160156 175.378906 12.445312 173.679688 11.617188 C 171.058594 10.335938 166.777344 10.527344 162.570312 12.105469 C 158.808594 13.519531 153.925781 16.375 149.863281 19.53125 C 148.15625 20.859375 147.839844 21.226562 147.410156 22.375 C 146.554688 24.660156 146.402344 27.261719 146.820312 32.511719 C 147.246094 37.816406 147.1875 39.285156 146.320312 45.296875 C 145.042969 54.152344 145.046875 58.410156 146.339844 62.496094 C 147.054688 64.761719 147.003906 65.351562 145.773438 68.675781 L 144.929688 70.949219 L 144.871094 76.09375 C 144.839844 78.925781 144.683594 82.15625 144.527344 83.273438 C 144.226562 85.425781 143.472656 88.648438 143.054688 89.5625 C 142.648438 90.457031 140.863281 91.40625 138.789062 91.835938 C 137.15625 92.171875 136.558594 92.1875 134.648438 91.945312 C 132.136719 91.628906 129.625 90.847656 127.535156 89.734375 L 126.128906 88.984375 L 125.980469 87.265625 C 125.902344 86.320312 125.515625 83.167969 125.121094 80.265625 C 123.738281 70.019531 123.570312 64.164062 124.542969 59.941406 C 125.214844 57.015625 125.101562 55.136719 124.078125 52.234375 C 123.605469 50.890625 123.144531 49.3125 123.058594 48.726562 C 122.863281 47.4375 123.429688 44.078125 125.21875 35.894531 C 126.910156 28.160156 127.625 24.445312 128.113281 20.820312 C 128.558594 17.53125 128.703125 10.226562 128.375 7.570312 C 128.191406 6.066406 128.085938 5.835938 127.136719 4.890625 C 124.226562 1.984375 116.371094 -0.183594 111.222656 0.496094 M 323.539062 9.726562 C 319.558594 11.363281 317.242188 11.644531 315.132812 10.738281 C 314.101562 10.292969 313.699219 10.25 312.089844 10.40625 C 311.070312 10.503906 309.53125 10.566406 308.667969 10.546875 C 307.378906 10.519531 306.960938 10.609375 306.34375 11.058594 C 305.929688 11.359375 305.125 11.941406 304.558594 12.347656 C 303.234375 13.300781 301.382812 13.980469 297.773438 14.835938 C 294.179688 15.6875 292.957031 16.164062 291.363281 17.320312 C 289.488281 18.679688 288.757812 19.808594 286.613281 24.660156 C 283.683594 31.285156 282.601562 34.613281 282.050781 38.726562 C 281.71875 41.226562 281.90625 46.773438 282.433594 50.011719 C 283.289062 55.242188 283.777344 58.761719 284.117188 62.152344 C 284.410156 65.058594 284.613281 66.078125 285.195312 67.484375 L 285.914062 69.222656 L 284.207031 73.078125 C 281.535156 79.121094 280.433594 82.578125 279.894531 86.585938 C 279.5625 89.082031 279.75 94.628906 280.277344 97.871094 C 281.132812 103.105469 281.621094 106.621094 281.960938 110.027344 C 282.269531 113.109375 282.445312 113.921875 283.132812 115.554688 C 284.890625 119.714844 287.425781 123.324219 289.996094 125.3125 C 290.878906 126 291.433594 126.613281 291.453125 126.921875 C 291.476562 127.332031 291.5 127.347656 291.589844 127 C 291.695312 126.601562 291.734375 126.601562 292.339844 127.027344 C 294.023438 128.207031 297.410156 129.21875 299.6875 129.21875 C 300.453125 129.21875 301.4375 129.417969 302.125 129.710938 C 303.761719 130.410156 306.269531 130.894531 308.285156 130.894531 C 309.980469 130.894531 315.464844 130.304688 315.820312 130.085938 C 315.921875 130.023438 317.347656 129.796875 318.992188 129.582031 C 320.941406 129.328125 322.464844 128.980469 323.367188 128.589844 C 325.671875 127.589844 328.066406 126.839844 330.96875 126.210938 C 340.523438 124.140625 345.320312 122.261719 348.308594 119.421875 C 349.996094 117.820312 350.644531 116.753906 351.375 114.382812 C 352.066406 112.132812 352.105469 108.5 351.472656 105.667969 C 351.21875 104.527344 351.109375 103.40625 351.199219 102.84375 C 351.410156 101.527344 350.921875 97.960938 350.355469 96.675781 C 348.609375 92.726562 344.667969 92.289062 336.089844 95.09375 L 332.703125 96.203125 L 331.175781 95.84375 C 328.082031 95.117188 326.21875 95.523438 322.941406 97.644531 C 319.082031 100.136719 318.601562 100.289062 314.25 100.367188 C 312.175781 100.402344 310.292969 100.511719 310.070312 100.609375 C 309.722656 100.757812 309.652344 100.597656 309.578125 99.507812 L 309.488281 98.230469 L 309.445312 99.464844 L 309.398438 100.703125 L 308.1875 100.960938 C 306.601562 101.300781 303.902344 101.292969 302.507812 100.941406 C 299.75 100.246094 298.277344 97.179688 298.269531 92.128906 C 298.265625 89.109375 298.785156 86.753906 300.011719 84.230469 C 300.605469 83.011719 300.765625 82.871094 302.203125 82.277344 C 303.664062 81.675781 303.804688 81.65625 304.601562 81.992188 C 305.976562 82.566406 308.589844 83.035156 310.441406 83.035156 C 312.136719 83.035156 317.621094 82.445312 317.980469 82.226562 C 318.078125 82.164062 319.503906 81.9375 321.148438 81.722656 C 323.097656 81.46875 324.621094 81.121094 325.523438 80.730469 C 327.828125 79.730469 330.226562 78.980469 333.125 78.351562 C 342.679688 76.28125 347.476562 74.40625 350.464844 71.566406 C 352.152344 69.960938 352.800781 68.894531 353.527344 66.523438 C 354.171875 64.429688 354.265625 60.988281 353.75 58.316406 C 353.476562 56.886719 353.332031 56.617188 352.570312 56.050781 C 352.089844 55.699219 351.363281 55.128906 350.953125 54.78125 C 350.210938 54.15625 348.804688 53.753906 344.988281 53.085938 C 342.882812 52.714844 329.894531 52.722656 328.332031 53.09375 C 327.738281 53.234375 326.238281 53.351562 325 53.355469 C 323.019531 53.363281 322.617188 53.289062 321.722656 52.765625 C 320.953125 52.316406 320.5625 52.21875 320.144531 52.371094 C 319.839844 52.484375 318.671875 52.523438 317.546875 52.460938 C 315.753906 52.359375 312.242188 52.65625 310.65625 53.042969 C 310.136719 53.171875 310.117188 53.109375 310.074219 51.414062 L 310.03125 49.652344 L 309.894531 51.449219 L 309.757812 53.242188 L 307.960938 53.320312 C 303.878906 53.496094 302.042969 52.355469 301.054688 49.027344 C 299.910156 45.1875 300.15625 41.347656 301.808594 37.210938 C 302.546875 35.355469 302.613281 35.277344 303.886719 34.65625 C 306.152344 33.558594 306.347656 33.5625 307.460938 34.707031 C 308 35.257812 308.441406 35.8125 308.441406 35.933594 C 308.441406 36.054688 308.667969 36.390625 308.949219 36.679688 L 309.453125 37.210938 L 309.089844 36.492188 C 308.890625 36.097656 308.277344 35.261719 307.726562 34.636719 C 306.839844 33.636719 306.773438 33.484375 307.164062 33.34375 C 307.402344 33.257812 308.140625 32.976562 308.800781 32.722656 C 309.460938 32.46875 311.507812 32.050781 313.355469 31.792969 C 315.199219 31.539062 318.597656 30.964844 320.902344 30.519531 C 327.546875 29.238281 328.730469 29.121094 333.730469 29.257812 C 337.78125 29.367188 339.53125 29.570312 342.59375 30.289062 C 342.988281 30.382812 344.988281 30.480469 347.042969 30.511719 C 349.25 30.542969 350.980469 30.675781 351.28125 30.835938 C 351.558594 30.984375 352.683594 31.105469 353.78125 31.105469 C 356.3125 31.101562 357.671875 30.511719 359.433594 28.636719 C 361.734375 26.195312 362.730469 23.28125 362.554688 19.515625 C 362.441406 17.074219 361.941406 15.808594 360.679688 14.75 C 359.980469 14.160156 359.789062 14.125 357.496094 14.136719 C 355.214844 14.148438 354 13.957031 349.78125 12.929688 C 349.253906 12.800781 348.335938 12.691406 347.746094 12.6875 C 347.152344 12.683594 345.804688 12.519531 344.75 12.324219 C 342.703125 11.941406 336.695312 10.84375 332.167969 10.03125 C 330.652344 9.757812 328.742188 9.382812 327.921875 9.195312 C 325.964844 8.746094 325.90625 8.753906 323.539062 9.726562 M 228.140625 17.957031 C 220.035156 18.679688 213.660156 21.585938 211.6875 25.460938 L 211.066406 26.679688 L 211.355469 30.152344 C 211.511719 32.058594 211.789062 36.15625 211.96875 39.257812 C 212.320312 45.371094 212.574219 46.53125 213.601562 46.789062 C 213.917969 46.867188 215.617188 46.59375 217.390625 46.175781 C 222.117188 45.0625 225.203125 44.5625 229.234375 44.253906 C 232.394531 44.011719 233.300781 43.835938 236.742188 42.800781 C 241.261719 41.441406 242.644531 40.804688 244.203125 39.351562 C 246.132812 37.546875 247.03125 35.140625 247.652344 30.117188 C 248.171875 25.898438 247.621094 23.925781 245.355469 21.894531 C 242.988281 19.765625 239.066406 18.394531 234.078125 17.945312 C 231.34375 17.699219 231.042969 17.699219 228.140625 17.957031 M 68.808594 21.554688 C 67.96875 21.664062 65.339844 22.195312 62.96875 22.734375 C 60.601562 23.273438 57.945312 23.773438 57.070312 23.847656 C 56.195312 23.921875 54.671875 24.179688 53.683594 24.417969 C 52.695312 24.660156 50.078125 25.246094 47.867188 25.71875 C 43.285156 26.699219 40.40625 27.636719 37.984375 28.941406 C 36.417969 29.785156 36.132812 29.855469 33.671875 29.988281 C 30.300781 30.171875 28.5 30.632812 25.523438 32.066406 C 19.023438 35.203125 14.929688 41.242188 14.148438 48.851562 C 14.007812 50.214844 13.714844 52.242188 13.496094 53.363281 C 12.902344 56.402344 12.957031 59.410156 13.625 60.898438 C 14.890625 63.703125 17.644531 65.445312 26.070312 68.769531 C 32.039062 71.125 34.234375 72.242188 38.796875 75.242188 C 46.949219 80.605469 50.351562 82.035156 55.359375 82.199219 C 60.917969 82.378906 65.039062 85.136719 67.695312 90.453125 C 69.203125 93.464844 70.0625 96.761719 71.183594 103.851562 C 71.589844 106.417969 72.199219 109.410156 72.539062 110.496094 C 73.058594 112.160156 73.136719 112.804688 73.050781 114.5625 C 72.867188 118.335938 71.085938 120.976562 67.519531 122.757812 C 66.46875 123.285156 65.484375 123.714844 65.324219 123.714844 C 65.167969 123.714844 64.671875 124.097656 64.214844 124.570312 C 63.761719 125.042969 62.613281 125.945312 61.664062 126.582031 C 57.445312 129.410156 53.894531 129.65625 49.625 127.414062 C 46.761719 125.914062 44.628906 123.179688 43.476562 119.53125 C 42.640625 116.894531 42.0625 113.289062 41.464844 106.964844 C 41.183594 104.003906 40.75 100.394531 40.5 98.941406 C 38.878906 89.457031 34.996094 84.605469 27.34375 82.492188 C 25.699219 82.039062 24.734375 81.980469 17.316406 81.894531 C 7.667969 81.78125 7.554688 81.800781 5.265625 83.917969 C 2.375 86.589844 0.238281 92.753906 0.238281 98.425781 C 0.238281 100.304688 0.347656 100.664062 4.648438 113.058594 L 9.054688 125.765625 L 11.566406 129.585938 C 12.945312 131.6875 14.558594 134.265625 15.148438 135.320312 C 16.21875 137.234375 17.972656 141.132812 17.972656 141.601562 C 17.972656 141.738281 18.882812 142.707031 19.988281 143.753906 C 22.253906 145.890625 25.027344 147.484375 28.050781 148.382812 C 29.648438 148.859375 30.445312 148.921875 35.589844 148.976562 C 40.847656 149.03125 41.863281 149.113281 47.335938 149.9375 C 52.625 150.734375 53.867188 150.839844 57.996094 150.855469 C 62.398438 150.871094 62.824219 150.832031 65.308594 150.1875 C 69.59375 149.070312 70.546875 148.496094 74.652344 144.53125 C 77.46875 141.816406 79.042969 140.527344 81.914062 138.589844 C 88.46875 134.167969 90.707031 132.023438 92.289062 128.652344 C 93.320312 126.445312 93.6875 124.035156 93.699219 119.363281 C 93.707031 114.90625 93.996094 112.300781 94.707031 110.246094 C 95.167969 108.917969 95.171875 108.78125 94.804688 106.65625 C 94.59375 105.445312 94.257812 102.425781 94.058594 99.953125 C 93.453125 92.476562 93.015625 91.0625 89.800781 86.175781 C 88.585938 84.332031 86.792969 81.574219 85.8125 80.050781 C 82.304688 74.59375 79.214844 71.410156 75.859375 69.785156 C 73.175781 68.488281 71 67.789062 64.175781 66.035156 C 60.652344 65.125 56.929688 64.109375 55.90625 63.769531 C 52.691406 62.710938 48.476562 60.492188 46.222656 58.675781 C 45.082031 57.761719 43.597656 56.710938 42.921875 56.34375 C 38.359375 53.863281 37.519531 50.128906 40.863281 47.191406 C 42.675781 45.597656 44.238281 45.226562 49.125 45.226562 C 56.046875 45.226562 59.015625 46.011719 66.816406 49.902344 C 73.65625 53.308594 75.585938 53.898438 80.886719 54.195312 C 82.914062 54.3125 83.851562 54.257812 84.957031 53.964844 C 88.53125 53.015625 90.988281 50.542969 92.402344 46.476562 C 93.101562 44.464844 93.535156 41.074219 93.328125 39.246094 C 93.1875 37.988281 92.992188 37.613281 91.273438 35.304688 C 87.035156 29.605469 82.207031 25.578125 78.191406 24.394531 C 77.632812 24.230469 77.015625 23.847656 76.816406 23.542969 C 76.273438 22.71875 74.59375 21.84375 72.992188 21.554688 C 71.414062 21.269531 71.023438 21.269531 68.808594 21.554688 M 357.570312 60.035156 C 357.570312 60.296875 357.679688 60.578125 357.808594 60.660156 C 357.941406 60.742188 358.050781 61.171875 358.050781 61.617188 C 358.050781 62.0625 358.15625 62.492188 358.289062 62.574219 C 358.601562 62.769531 358.59375 62.203125 358.261719 60.882812 C 357.972656 59.738281 357.570312 59.246094 357.570312 60.035156 M 359.035156 66.449219 C 359.019531 67.132812 359.117188 67.757812 359.25 67.839844 C 359.523438 68.007812 359.523438 67.003906 359.25 65.925781 C 359.089844 65.308594 359.0625 65.382812 359.035156 66.449219 M 359.488281 69.578125 C 359.488281 70.382812 359.59375 71.109375 359.726562 71.1875 C 359.859375 71.269531 359.96875 72.023438 359.96875 72.863281 C 359.96875 73.703125 360.074219 74.457031 360.207031 74.539062 C 360.339844 74.621094 360.445312 75.375 360.445312 76.214844 C 360.445312 77.054688 360.554688 77.808594 360.6875 77.890625 C 360.816406 77.972656 360.925781 78.617188 360.925781 79.324219 C 360.925781 80.035156 361.035156 80.679688 361.164062 80.761719 C 361.296875 80.84375 361.40625 80.730469 361.40625 80.515625 C 361.40625 79.890625 359.695312 68.328125 359.585938 68.21875 C 359.53125 68.164062 359.488281 68.777344 359.488281 69.578125 M 361.40625 82.261719 C 361.40625 82.933594 361.511719 83.550781 361.644531 83.632812 C 361.777344 83.714844 361.882812 84.144531 361.882812 84.589844 C 361.882812 85.035156 361.992188 85.464844 362.125 85.546875 C 362.257812 85.628906 362.363281 86.058594 362.363281 86.503906 C 362.363281 86.949219 362.472656 87.378906 362.601562 87.460938 C 362.734375 87.542969 362.84375 87.867188 362.84375 88.179688 C 362.84375 88.492188 362.949219 88.816406 363.082031 88.898438 C 363.214844 88.976562 363.324219 89.941406 363.324219 91.035156 C 363.324219 92.347656 363.425781 93.109375 363.625 93.277344 C 364.132812 93.695312 363.832031 90.109375 363.199219 88.160156 C 362.898438 87.226562 362.414062 85.289062 362.121094 83.851562 C 361.832031 82.414062 361.550781 81.195312 361.5 81.140625 C 361.449219 81.085938 361.40625 81.589844 361.40625 82.261719 M 363.835938 96.601562 C 363.8125 98.273438 363.898438 99.335938 364.058594 99.4375 C 364.199219 99.523438 364.34375 99.554688 364.378906 99.507812 C 364.414062 99.464844 364.3125 98.1875 364.15625 96.675781 L 363.871094 93.921875 L 363.835938 96.601562 M 363.976562 115.003906 C 363.878906 115.101562 363.800781 115.425781 363.800781 115.722656 C 363.800781 116.023438 363.695312 116.335938 363.5625 116.414062 C 363.429688 116.496094 363.324219 116.875 363.324219 117.261719 C 363.324219 117.644531 363.105469 118.339844 362.84375 118.808594 C 362.449219 119.507812 362.367188 120.082031 362.382812 121.984375 C 362.40625 124.742188 362.511719 124.640625 362.828125 121.558594 C 362.957031 120.308594 363.335938 118.378906 363.675781 117.269531 C 364.261719 115.34375 364.359375 114.625 363.976562 115.003906 M 362.042969 125.070312 C 361.957031 125.15625 361.882812 125.566406 361.882812 125.980469 C 361.882812 126.390625 361.769531 126.84375 361.625 126.988281 C 361.484375 127.128906 361.40625 127.554688 361.449219 127.933594 C 361.511719 128.460938 361.632812 128.214844 361.976562 126.875 C 362.394531 125.230469 362.414062 124.699219 362.042969 125.070312 M 354.691406 139.183594 C 353.175781 140.714844 352.273438 141.742188 352.683594 141.464844 C 353.941406 140.609375 357.96875 136.394531 357.527344 136.394531 C 357.480469 136.394531 356.203125 137.652344 354.691406 139.183594 M 162.726562 142.394531 C 159.082031 142.757812 154.152344 143.730469 151.078125 144.699219 L 148.230469 145.59375 L 141.039062 145.625 C 133.21875 145.65625 130.507812 145.929688 126.90625 147.046875 C 123.976562 147.953125 122.722656 148.742188 121.839844 150.210938 C 120.929688 151.730469 120.710938 152.921875 121.03125 154.605469 C 121.269531 155.847656 121.769531 156.953125 124.328125 161.882812 C 125.183594 163.53125 125.644531 164.753906 125.8125 165.828125 C 126.15625 168.03125 126.109375 172.792969 125.703125 176.71875 C 125.261719 180.960938 125.25 186.546875 125.671875 188.441406 C 125.851562 189.230469 126.441406 191.550781 126.984375 193.597656 C 128.757812 200.246094 129.246094 203.707031 129.257812 209.621094 C 129.269531 214.109375 129.199219 215.082031 128.722656 217.277344 C 128.421875 218.660156 128.082031 220.21875 127.96875 220.746094 C 127.648438 222.207031 127.703125 227.847656 128.085938 233.308594 C 128.6875 241.863281 128.769531 244.996094 128.476562 248.175781 C 128.324219 249.835938 128.105469 251.535156 127.984375 251.945312 C 127.867188 252.355469 127.078125 253.488281 126.226562 254.460938 C 124.304688 256.660156 123.335938 258.058594 122.507812 259.820312 C 121.578125 261.800781 121.597656 265.316406 122.554688 269.203125 C 123.339844 272.382812 123.328125 272.359375 125.050781 274.644531 C 126.4375 276.484375 127.132812 278.019531 126.761719 278.402344 C 126.429688 278.746094 126.492188 279.015625 126.90625 279.015625 C 127.109375 279.015625 127.515625 279.167969 127.804688 279.355469 C 128.097656 279.542969 129.632812 279.964844 131.214844 280.292969 C 138.324219 281.769531 144.082031 282.242188 152.542969 282.050781 C 160.277344 281.871094 164.414062 281.46875 172.980469 280.058594 L 176.640625 279.453125 L 180.769531 280.117188 C 185.65625 280.898438 189.066406 280.988281 191.007812 280.390625 C 191.78125 280.152344 193.042969 279.445312 194.0625 278.671875 C 195.019531 277.953125 196.53125 276.964844 197.417969 276.480469 C 202.839844 273.523438 204.46875 272.324219 205.488281 270.554688 C 205.871094 269.890625 206.222656 268.574219 206.554688 266.570312 C 207.039062 263.636719 207.066406 263.566406 207.941406 262.863281 C 209.339844 261.734375 210.84375 259.511719 211.390625 257.753906 C 211.726562 256.664062 211.949219 255.027344 212.089844 252.574219 C 212.355469 247.917969 213 245.40625 215.699219 238.453125 C 216.628906 236.0625 216.730469 235.578125 216.835938 233.175781 C 216.980469 229.804688 216.585938 228.171875 214.164062 222.101562 C 213.183594 219.644531 212.308594 217.382812 212.21875 217.074219 C 212.125 216.765625 210.320312 214.613281 208.207031 212.289062 C 201.722656 205.167969 201.992188 205.417969 200.171875 204.835938 C 197.851562 204.097656 196.890625 203.398438 196.390625 202.089844 C 196.160156 201.488281 196.023438 200.941406 196.085938 200.878906 C 196.148438 200.816406 197.433594 200.546875 198.9375 200.28125 C 209.464844 198.414062 213.148438 195.339844 216.417969 185.691406 C 216.84375 184.441406 217.433594 182.933594 217.730469 182.339844 C 218.628906 180.554688 219.507812 177.433594 219.796875 175.007812 C 220.4375 169.558594 218.820312 163.355469 215.386719 158.105469 C 213.027344 154.5 211.695312 153.167969 207.488281 150.207031 C 196.972656 142.808594 194.367188 141.851562 185.859375 142.269531 C 181.050781 142.503906 179.5 142.507812 171.234375 142.316406 C 167.808594 142.234375 163.980469 142.269531 162.726562 142.394531 M 320.132812 148.300781 C 320.960938 148.347656 322.257812 148.34375 323.007812 148.296875 C 323.761719 148.25 323.082031 148.210938 321.503906 148.214844 C 319.921875 148.214844 319.304688 148.253906 320.132812 148.300781 M 80.375 161.394531 C 77.078125 161.839844 74.621094 162.308594 68.421875 163.671875 C 60.886719 165.332031 56.933594 165.632812 49.488281 165.117188 C 39.191406 164.398438 36.515625 164.320312 31.390625 164.597656 C 24.105469 164.992188 20.015625 165.882812 15.730469 168.007812 C 9.875 170.90625 6.9375 175.167969 6.957031 180.738281 C 6.960938 182.859375 7.378906 183.824219 9.203125 185.929688 C 9.980469 186.832031 10.660156 187.886719 10.816406 188.441406 C 10.960938 188.96875 11.230469 189.882812 11.410156 190.476562 C 12.125 192.828125 12.265625 194.347656 12.242188 199.515625 L 12.214844 204.847656 L 12.824219 205.738281 C 14.390625 208.027344 14.800781 211.1875 14.367188 217.621094 C 14.101562 221.59375 14.105469 222.476562 14.398438 223.664062 C 14.625 224.59375 14.734375 226.359375 14.726562 229.003906 C 14.71875 232.457031 14.617188 233.476562 13.917969 237.136719 C 13.207031 240.851562 13.132812 241.601562 13.265625 243.835938 C 13.347656 245.21875 13.679688 247.535156 14.003906 248.984375 C 14.324219 250.429688 14.933594 253.121094 15.347656 254.964844 C 16.0625 258.121094 16.089844 258.40625 15.804688 259.871094 C 15.421875 261.84375 14.441406 264.71875 13.324219 267.152344 C 11.289062 271.574219 11.128906 274.199219 12.496094 280.804688 C 13.070312 283.574219 13.390625 284.300781 14.574219 285.535156 C 16.082031 287.105469 17.320312 287.402344 23.488281 287.667969 C 29.546875 287.925781 31.148438 287.839844 33.34375 287.125 C 38.359375 285.492188 41.691406 282.238281 41.699219 278.972656 C 41.699219 278.355469 41.382812 276.578125 40.996094 275.023438 C 39.714844 269.878906 39.453125 268.085938 39.441406 264.417969 C 39.429688 261.710938 39.523438 260.632812 39.867188 259.523438 C 40.46875 257.566406 41.335938 255.890625 42.4375 254.570312 C 42.996094 253.902344 43.476562 252.996094 43.648438 252.296875 C 44.039062 250.703125 43.980469 246.257812 43.523438 242.523438 C 43.3125 240.8125 43.140625 238.367188 43.140625 237.085938 C 43.136719 234.835938 43.160156 234.734375 43.867188 233.933594 C 44.761719 232.914062 45.988281 232.445312 48.644531 232.101562 C 49.761719 231.957031 50.753906 231.785156 50.851562 231.726562 C 51.210938 231.507812 52.890625 232.578125 53.894531 233.667969 C 55.570312 235.480469 56.191406 237.183594 58.070312 245.089844 C 59 249.015625 59.910156 251.199219 61.214844 252.640625 C 62.375 253.921875 62.722656 255.601562 63.035156 261.425781 C 63.417969 268.566406 63.953125 270.964844 65.671875 273.246094 C 66.917969 274.90625 67.496094 276.894531 67.9375 281.046875 C 68.132812 282.890625 68.414062 284.828125 68.5625 285.355469 C 68.921875 286.632812 70.59375 288.207031 72.589844 289.152344 C 74.039062 289.839844 74.378906 289.902344 76.570312 289.898438 C 78.398438 289.894531 79.390625 289.761719 80.753906 289.339844 C 82.800781 288.699219 86.167969 287.066406 88.433594 285.609375 C 89.289062 285.0625 90.691406 284.414062 91.546875 284.175781 C 96.304688 282.851562 100.035156 279.945312 101.910156 276.109375 C 103.144531 273.582031 103.378906 272.449219 103.226562 269.730469 C 103.078125 266.996094 102.722656 265.851562 100.292969 260.230469 C 99.324219 257.992188 98.308594 255.355469 98.035156 254.371094 C 97.453125 252.257812 97.382812 249.230469 97.878906 247.578125 L 98.21875 246.457031 L 96.710938 244.25 C 92.574219 238.179688 89.75 233.144531 89.023438 230.546875 C 88.660156 229.238281 88.65625 229.027344 88.992188 228.222656 C 89.480469 227.054688 90.308594 226.59375 93.535156 225.667969 C 100.257812 223.746094 103.703125 220.882812 106.640625 214.78125 C 108.980469 209.929688 109.523438 207.6875 109.523438 202.90625 C 109.523438 199.257812 109.015625 196.042969 107.382812 189.390625 C 106.34375 185.160156 106.25 184.554688 106.53125 184.007812 C 107.746094 181.664062 107.945312 176.25 106.925781 173.410156 C 106.203125 171.402344 104.875 169.339844 103.101562 167.460938 C 100.34375 164.546875 97.503906 162.878906 93.511719 161.839844 C 91.554688 161.328125 90.53125 161.222656 86.996094 161.148438 C 84.320312 161.097656 81.925781 161.183594 80.375 161.394531 M 164.527344 161.3125 C 160.609375 161.804688 155.636719 163.40625 153.160156 164.976562 C 151.65625 165.929688 149.84375 167.679688 149.1875 168.8125 C 148.320312 170.308594 148.085938 171.503906 148.34375 173.136719 C 148.746094 175.722656 149.523438 184.289062 149.785156 189.089844 C 149.925781 191.679688 150.15625 194.132812 150.296875 194.535156 C 150.671875 195.601562 151.339844 195.652344 154.027344 194.820312 C 159.910156 192.996094 164.929688 192.082031 171.15625 191.695312 C 177.332031 191.3125 184.128906 188.960938 186.8125 186.28125 C 188.519531 184.578125 190 181.535156 191.121094 177.453125 C 192.050781 174.0625 192.09375 173.625 191.695312 171.761719 C 190.558594 166.410156 184.992188 162.785156 175.789062 161.40625 C 173.183594 161.015625 167.292969 160.96875 164.527344 161.3125 M 303.109375 163.921875 C 298.722656 164.660156 295.3125 167.023438 293.585938 170.519531 C 292.953125 171.808594 292.800781 172.425781 292.738281 173.980469 C 292.644531 176.347656 292.042969 178.175781 290.332031 181.261719 C 287.007812 187.273438 286.203125 189.5625 286.484375 192.242188 C 286.621094 193.566406 286.578125 193.734375 285.824219 194.878906 C 283.5 198.390625 282.894531 200.59375 282.5625 206.714844 C 282.222656 213.054688 282 214.214844 280.867188 215.648438 C 278.804688 218.253906 278.039062 220.804688 278.003906 225.171875 C 277.988281 227.746094 277.765625 228.414062 276.207031 230.558594 C 273.089844 234.851562 272.460938 237.238281 272.550781 244.4375 L 272.613281 249.460938 L 271.855469 251.617188 C 271.441406 252.800781 269.980469 256.03125 268.609375 258.792969 C 265.535156 265.003906 265.003906 266.585938 264.867188 269.914062 L 264.765625 272.417969 L 263.246094 273.933594 C 261.746094 275.429688 261.726562 275.46875 261.480469 277.246094 C 260.707031 282.800781 261.542969 286.648438 264.210938 289.800781 C 264.8125 290.515625 266.152344 292.121094 267.1875 293.371094 C 270.746094 297.664062 273.039062 299.347656 275.351562 299.351562 C 278.0625 299.359375 281.097656 296.582031 282.707031 292.628906 C 283.027344 291.84375 283.9375 288.867188 284.730469 286.019531 C 286.304688 280.355469 287.492188 277.503906 289.160156 275.386719 C 290.546875 273.625 290.871094 272.199219 291.179688 266.546875 C 291.527344 260.1875 292.222656 258.058594 294.292969 257.003906 C 295.132812 256.574219 295.691406 256.523438 299.265625 256.527344 C 303.429688 256.535156 305.046875 256.742188 311.195312 258.046875 C 315.636719 258.988281 318.382812 259.25 320.648438 258.945312 C 322.402344 258.707031 322.691406 258.589844 323.902344 257.605469 C 325.554688 256.261719 326.898438 255.5625 327.828125 255.5625 C 329.335938 255.5625 329.535156 256 332.175781 265.015625 L 334.628906 273.390625 L 334.074219 277.9375 C 333.414062 283.375 333.191406 290.40625 333.59375 293.199219 C 334.125 296.871094 335.585938 300.46875 337.632812 303.140625 C 338.242188 303.933594 338.648438 304.863281 339.03125 306.335938 C 339.707031 308.921875 340.9375 311.542969 342.371094 313.449219 C 345.980469 318.242188 350.714844 319.097656 354.515625 315.644531 C 355.207031 315.011719 356.113281 314.324219 356.527344 314.113281 C 358.179688 313.265625 359.578125 311.234375 360.550781 308.273438 C 360.773438 307.585938 361.433594 306.414062 362.011719 305.671875 C 363.15625 304.203125 363.546875 303.273438 364.136719 300.636719 C 364.609375 298.53125 364.617188 296.839844 364.164062 294.808594 C 363.214844 290.542969 362.777344 287.429688 361.855469 278.363281 L 360.855469 268.5 L 361.460938 267.117188 C 362.21875 265.402344 362.425781 264.269531 362.15625 263.332031 C 362.042969 262.933594 361.078125 261.722656 360.011719 260.632812 C 356.175781 256.71875 354.691406 253.714844 354.695312 249.855469 C 354.699219 247.417969 355.1875 245.226562 356.734375 240.730469 L 357.847656 237.503906 L 357.355469 235.824219 C 356.242188 232.027344 356.164062 229.433594 357.101562 227.0625 C 357.671875 225.613281 357.71875 223.257812 357.203125 221.800781 C 357 221.230469 356.347656 219.929688 355.75 218.914062 L 354.664062 217.066406 L 354.738281 209.691406 C 354.816406 201.382812 354.613281 199.75 353.132812 196.886719 C 352.707031 196.058594 351.96875 194.628906 351.496094 193.707031 C 350.386719 191.546875 349.78125 188.933594 349.167969 183.628906 C 347.808594 171.890625 346.328125 169.242188 339.117188 165.648438 C 337.210938 164.699219 333.960938 164.71875 329.769531 165.703125 C 325.492188 166.710938 323.886719 166.667969 319.226562 165.4375 C 317.183594 164.894531 314.304688 164.277344 312.832031 164.066406 C 310.054688 163.660156 305.09375 163.589844 303.109375 163.921875 M 245.148438 170.007812 C 244.675781 170.183594 243.925781 170.511719 243.480469 170.742188 C 243.039062 170.96875 241.214844 171.40625 239.433594 171.714844 C 235.402344 172.40625 233.875 173.105469 232.828125 174.738281 C 232.433594 175.355469 231.691406 176.507812 231.183594 177.300781 C 230.675781 178.09375 230.113281 179.148438 229.9375 179.644531 C 229.496094 180.871094 229.515625 184.285156 229.976562 187.734375 C 230.46875 191.433594 230.320312 193.304688 229.347656 195.511719 C 227.914062 198.773438 228.121094 200.363281 230.507812 204.421875 C 231.300781 205.765625 232.136719 207.417969 232.371094 208.089844 C 232.796875 209.308594 232.792969 209.328125 232.128906 212.011719 C 230.582031 218.265625 230.371094 222.835938 231.390625 227.949219 C 232.175781 231.894531 232.183594 235.984375 231.410156 243.957031 C 231.089844 247.25 230.757812 251.394531 230.667969 253.171875 C 230.519531 256.125 230.550781 256.519531 231.023438 257.765625 C 231.304688 258.519531 232.070312 259.949219 232.722656 260.945312 C 233.375 261.941406 233.90625 262.878906 233.90625 263.027344 C 233.90625 263.175781 234.292969 265.027344 234.765625 267.136719 C 235.742188 271.5 236.554688 273.511719 237.851562 274.769531 C 239.09375 275.972656 240.019531 276.226562 242.679688 276.085938 C 245.535156 275.9375 246.996094 275.269531 248.867188 273.25 C 251.964844 269.910156 253.414062 265.027344 254.511719 254.21875 L 255.003906 249.40625 L 254.40625 246.921875 C 253.175781 241.796875 253.164062 239.539062 254.363281 236.832031 C 254.824219 235.792969 254.945312 234.992188 255.074219 232.089844 C 255.402344 224.875 256.921875 219.695312 260.050781 215.089844 C 261.539062 212.902344 261.714844 211.988281 261.953125 205.074219 C 262.125 200.070312 262.257812 198.605469 262.6875 196.9375 C 263.394531 194.179688 263.472656 186.941406 262.828125 183.65625 C 261.980469 179.332031 259.957031 174.453125 258.621094 173.511719 C 257.5 172.71875 253.613281 170.871094 251.785156 170.257812 C 249.75 169.574219 246.644531 169.457031 245.148438 170.007812 M 73.097656 181.992188 C 72.105469 182.171875 69.734375 182.761719 67.824219 183.304688 C 62.753906 184.738281 61.296875 184.996094 58.476562 184.960938 C 56.023438 184.933594 55.890625 184.957031 53.117188 186.035156 C 49.511719 187.433594 45.742188 188.550781 40.601562 189.734375 C 35.910156 190.816406 34.683594 191.257812 34.027344 192.089844 C 33.394531 192.894531 33.398438 194.832031 34.042969 197.277344 C 34.640625 199.554688 39.050781 213.027344 39.269531 213.242188 C 39.355469 213.328125 40.285156 213.242188 41.339844 213.054688 C 43.496094 212.671875 47.078125 212.570312 53.085938 212.722656 C 58.5625 212.863281 61.109375 212.292969 66.613281 209.703125 L 69.359375 208.410156 L 73.804688 208.800781 C 79.585938 209.308594 81.789062 209.171875 83.824219 208.167969 C 85.53125 207.332031 86.457031 206.261719 87.207031 204.261719 C 88.105469 201.863281 88.097656 201.039062 87.167969 199.1875 C 85.65625 196.179688 84.460938 192.285156 83.507812 187.246094 C 83.015625 184.644531 82.785156 184.246094 81.175781 183.183594 C 78.933594 181.703125 76.582031 181.359375 73.097656 181.992188 M 310.917969 204.058594 C 309.84375 206.917969 308.078125 211.574219 307 214.40625 C 304.210938 221.714844 301.472656 230.078125 300.191406 235.183594 C 299.589844 237.59375 299.09375 239.738281 299.09375 239.941406 C 299.09375 240.261719 299.339844 240.296875 300.710938 240.171875 C 301.601562 240.089844 305.132812 239.804688 308.558594 239.535156 C 317.691406 238.816406 323.992188 237.914062 324.738281 237.214844 C 325.003906 236.96875 325.09375 236.371094 325.078125 234.914062 C 325.0625 233.160156 324.9375 232.632812 323.898438 229.960938 L 322.738281 226.96875 L 322.785156 223.257812 C 322.824219 220.144531 322.765625 219.433594 322.421875 218.832031 C 322.195312 218.4375 320.675781 215.53125 319.046875 212.371094 C 316.433594 207.3125 315.992188 206.285156 315.351562 203.757812 C 314.949219 202.175781 314.511719 200.671875 314.378906 200.40625 C 314.09375 199.851562 313.214844 198.851562 313.011719 198.851562 C 312.9375 198.855469 311.996094 201.195312 310.917969 204.058594 M 150.273438 216.859375 C 150.277344 218.074219 150.476562 224.457031 150.722656 231.035156 C 150.964844 237.617188 151.085938 243.539062 150.992188 244.199219 C 150.898438 244.855469 150.628906 246.5 150.398438 247.847656 C 149.777344 251.429688 150.238281 253.367188 151.910156 254.230469 C 153.367188 254.984375 156.929688 255.824219 159.800781 256.09375 C 166.167969 256.695312 174.933594 255.121094 182.234375 252.070312 C 184.078125 251.300781 184.398438 251.0625 185.574219 249.621094 C 187.648438 247.078125 188.703125 244.941406 189.730469 241.207031 C 190.070312 239.976562 190.15625 238.773438 190.144531 235.464844 C 190.132812 231.703125 190.066406 231.03125 189.492188 228.882812 C 188.308594 224.464844 185.789062 220.039062 184.117188 219.445312 C 183.285156 219.152344 181.871094 218.261719 178.941406 216.1875 C 176.769531 214.652344 176.699219 214.644531 162.804688 214.644531 L 150.265625 214.644531 L 150.273438 216.859375 M 182.914062 296.714844 C 181.230469 297.320312 180.199219 297.980469 179.226562 299.070312 C 178.785156 299.566406 176.996094 302.875 175.246094 306.421875 C 172.464844 312.058594 172.019531 313.125 171.726562 314.863281 C 171.335938 317.171875 171 317.773438 169.535156 318.804688 C 167.878906 319.972656 167.3125 321.363281 167.03125 324.980469 C 166.628906 330.125 166.296875 331.082031 164.261719 332.988281 L 162.96875 334.199219 L 162.964844 335.980469 C 162.960938 338.175781 162.453125 339.359375 160.339844 342.066406 C 158.507812 344.417969 158.027344 345.324219 157.816406 346.859375 C 156.792969 354.289062 153.652344 362.035156 149.507812 367.347656 C 148.988281 368.015625 148.828125 368.476562 148.828125 369.316406 C 148.828125 370.863281 148.21875 372.230469 147.261719 372.820312 C 144.605469 374.460938 144.835938 380.433594 147.757812 385.652344 C 148.851562 387.601562 150.964844 389.878906 152.269531 390.507812 C 153.523438 391.113281 155.359375 391.140625 156.4375 390.566406 C 157.621094 389.9375 158.988281 387.925781 160.84375 384.082031 C 161.832031 382.027344 163.6875 378.824219 165.359375 376.285156 C 168.101562 372.121094 168.199219 371.925781 168.355469 370.355469 C 168.769531 366.238281 169.925781 363.398438 171.488281 362.65625 C 173.257812 361.820312 176.707031 362.332031 181.300781 364.121094 C 186.296875 366.0625 187.382812 366.382812 189.050781 366.398438 C 190.796875 366.414062 191.21875 366.253906 193.25 364.796875 C 193.890625 364.339844 194.628906 363.960938 194.890625 363.960938 C 196.078125 363.960938 197.398438 366.566406 197.984375 370.058594 C 198.394531 372.503906 198.121094 377.195312 197.402344 379.996094 C 196.816406 382.265625 196.816406 382.269531 197.265625 383.476562 C 198.230469 386.0625 201.273438 388.886719 204.347656 390.042969 C 205.917969 390.636719 208.761719 390.785156 209.628906 390.324219 C 209.957031 390.148438 210.898438 388.523438 212.179688 385.917969 C 215.167969 379.84375 216.410156 376.277344 216.902344 372.367188 C 217.132812 370.53125 217.117188 370.421875 216.246094 367.882812 C 215.429688 365.507812 215.351562 365.046875 215.34375 362.648438 C 215.335938 360.285156 215.402344 359.859375 215.992188 358.519531 C 217.996094 353.976562 217.890625 354.414062 218.089844 349.621094 C 218.222656 346.390625 218.378906 344.914062 218.667969 344.207031 C 219.035156 343.304688 219.035156 343.171875 218.667969 342.292969 C 218.003906 340.714844 217.972656 337.933594 218.566406 333.691406 C 219.210938 329.082031 219.128906 327 218.222656 324.597656 C 217.160156 321.796875 217.066406 321.019531 217.003906 314.429688 C 216.941406 307.550781 216.777344 306.386719 215.523438 304.089844 C 214.167969 301.605469 211.398438 299.851562 208.527344 299.65625 C 207.65625 299.597656 205.417969 299.71875 203.550781 299.929688 L 200.15625 300.308594 L 198.636719 299.632812 C 195.964844 298.441406 192.621094 297.21875 190.671875 296.722656 C 188.152344 296.085938 184.675781 296.082031 182.914062 296.714844 M 88.371094 297.699219 C 87.214844 297.972656 85.828125 298.679688 84.859375 299.492188 C 83.597656 300.554688 83.101562 301.816406 82.941406 304.382812 C 82.777344 307.066406 82.496094 307.625 80.46875 309.289062 C 78.050781 311.269531 78.171875 310.789062 77.523438 320.984375 C 77.074219 328.058594 76.773438 331.039062 76.109375 335.167969 C 74.855469 342.90625 74.699219 344.675781 74.867188 349.160156 C 75.046875 353.972656 74.800781 356.113281 73.078125 364.5625 C 71.957031 370.066406 71.851562 370.886719 71.734375 374.851562 C 71.597656 379.664062 71.878906 381.730469 72.992188 383.996094 C 75.582031 389.285156 83.003906 391.011719 93.660156 388.8125 C 96.097656 388.308594 96.132812 388.292969 96.835938 387.273438 C 98.730469 384.523438 99.535156 381.199219 99.527344 376.167969 C 99.519531 372.460938 99.390625 371.261719 98.027344 362.046875 C 97.628906 359.351562 97.300781 356.527344 97.300781 355.777344 C 97.300781 354.972656 97.105469 353.90625 96.820312 353.195312 C 96.558594 352.527344 96.34375 351.433594 96.34375 350.761719 C 96.34375 349.6875 96.4375 349.453125 97.144531 348.785156 C 97.585938 348.371094 98.421875 347.882812 99.003906 347.699219 C 99.582031 347.519531 100.460938 346.992188 100.957031 346.527344 C 102.007812 345.535156 103.1875 345.390625 104.023438 346.148438 C 105.265625 347.269531 106.507812 350.296875 107.394531 354.359375 C 108.363281 358.789062 109.960938 362.75 112.03125 365.863281 C 112.996094 367.3125 113.226562 367.941406 114.066406 371.414062 C 115.5 377.34375 116.234375 379.199219 117.847656 380.980469 C 118.886719 382.128906 120.703125 383.105469 121.800781 383.105469 C 123.710938 383.105469 131.457031 380.667969 134.917969 378.976562 C 136.933594 377.992188 137.765625 377.414062 139.136719 376.0625 C 141.117188 374.101562 142.25 372.035156 142.015625 370.8125 C 141.792969 369.636719 138.15625 362.417969 135.007812 356.902344 C 130.179688 348.4375 130.234375 348.554688 129.566406 345.402344 C 128.808594 341.832031 128.425781 340.75 127.425781 339.351562 C 126.351562 337.84375 126.058594 337.09375 126.058594 335.824219 C 126.058594 334.449219 126.496094 333.625 127.839844 332.441406 C 129.222656 331.226562 130.855469 330.371094 135.289062 328.542969 C 142.660156 325.5 145.328125 323.761719 146.597656 321.183594 C 147.230469 319.894531 147.269531 319.628906 147.269531 316.703125 C 147.269531 313.15625 146.984375 312.242188 145.527344 311.132812 C 144.851562 310.617188 144.367188 310.476562 143.0625 310.402344 C 141.03125 310.285156 139.515625 310.761719 137.417969 312.164062 C 136.398438 312.847656 135.035156 313.457031 133.421875 313.957031 C 124.8125 316.609375 114.589844 321.550781 102.09375 329.101562 C 94.511719 333.679688 94.871094 333.554688 94.40625 331.828125 C 94.023438 330.414062 94.410156 327.609375 96.238281 318.496094 C 98.542969 306.996094 99.027344 303.214844 98.515625 300.738281 C 98.105469 298.765625 97.613281 298.265625 95.632812 297.816406 C 93.839844 297.410156 89.875 297.347656 88.371094 297.699219 M 35.828125 305.9375 C 32.199219 306.511719 27.128906 307.675781 23.726562 308.71875 C 19.800781 309.921875 19.335938 310.03125 16.859375 310.335938 C 11.472656 310.996094 6.566406 315.429688 4.074219 321.890625 C 3.003906 324.65625 2.582031 326.894531 2.570312 329.863281 C 2.550781 334.734375 3.816406 337.953125 6.964844 341.027344 C 11.324219 345.28125 16.558594 348.042969 28.960938 352.621094 C 37.109375 355.628906 37.679688 355.898438 38.972656 357.363281 C 41.980469 360.765625 44.425781 368.570312 44.011719 373.457031 C 43.769531 376.34375 43.453125 376.835938 40.925781 378.335938 C 38.546875 379.746094 36.003906 382.058594 35.5 383.269531 C 34.898438 384.722656 31.996094 385.28125 29.894531 384.351562 C 27.746094 383.402344 25.949219 381.234375 23.019531 376.046875 C 22.203125 374.597656 21.0625 372.929688 20.484375 372.339844 C 19 370.816406 18.304688 369.09375 17.359375 364.597656 C 16.378906 359.949219 15.863281 358.363281 14.867188 356.914062 C 13.9375 355.566406 13.050781 354.890625 10.792969 353.8125 C 7.808594 352.386719 6.875 352.640625 6.238281 355.0625 C 5.78125 356.792969 4.765625 357.441406 3.730469 356.65625 C 3.046875 356.140625 1.78125 356.214844 1.234375 356.800781 C 0.378906 357.71875 0.125 359.292969 0.148438 363.484375 C 0.160156 365.65625 0.273438 369.101562 0.394531 371.140625 C 0.632812 375.175781 0.8125 375.746094 2.457031 377.683594 C 3.203125 378.566406 3.230469 378.675781 3.148438 380.316406 C 2.949219 384.253906 2.917969 384.066406 3.953125 384.878906 C 6.25 386.679688 7.554688 388.21875 8.132812 389.804688 C 9.542969 393.679688 11.054688 395.519531 14.675781 397.78125 C 16.320312 398.808594 17.113281 399.148438 18.390625 399.363281 C 19.28125 399.511719 22.222656 400.167969 24.925781 400.820312 C 32.816406 402.726562 36.078125 403.074219 39.417969 402.367188 C 41.839844 401.855469 43.460938 400.964844 45.519531 399.023438 C 46.515625 398.082031 48.910156 396.066406 50.839844 394.539062 C 58.300781 388.636719 59.6875 386.554688 60.507812 380.027344 C 60.949219 376.515625 61.351562 370.144531 61.351562 366.714844 C 61.347656 361.699219 60.261719 357.148438 58.386719 354.335938 C 57.316406 352.722656 54.5 349.996094 52.539062 348.675781 C 50.328125 347.1875 41.535156 342.210938 40.148438 341.664062 C 39.492188 341.40625 37.839844 340.929688 36.472656 340.609375 C 33.167969 339.828125 32.339844 339.371094 30.074219 337.066406 C 29.019531 335.992188 27.535156 334.699219 26.78125 334.199219 C 23.417969 331.972656 21.636719 329.621094 21.882812 327.746094 C 22.0625 326.394531 23.398438 325.207031 25.445312 324.585938 C 26.933594 324.132812 30.273438 323.976562 33.433594 324.210938 C 34.089844 324.257812 35.28125 324.277344 36.074219 324.25 C 39 324.152344 40.488281 325.359375 43.09375 329.949219 C 45.945312 334.96875 47.101562 335.949219 50.15625 335.960938 C 53.757812 335.972656 56.371094 333.351562 58.035156 328.0625 C 58.507812 326.554688 58.597656 325.765625 58.597656 323.023438 L 58.597656 319.773438 L 56.5625 316.683594 C 55.300781 314.765625 53.683594 312.714844 52.308594 311.28125 C 51.085938 310.011719 50.089844 308.859375 50.089844 308.71875 C 50.089844 308.109375 48.539062 306.761719 47.257812 306.261719 C 46.078125 305.800781 45.367188 305.71875 41.941406 305.664062 C 39.382812 305.621094 37.222656 305.71875 35.828125 305.9375 M 250.96875 310.183594 C 249.757812 310.574219 248.417969 311.929688 246.78125 314.429688 C 245.808594 315.914062 245.078125 316.773438 244.679688 316.910156 C 244.214844 317.070312 243.535156 316.917969 241.773438 316.257812 C 240.507812 315.785156 238.699219 315.277344 237.746094 315.132812 C 232.578125 314.332031 229.011719 317.109375 228.039062 322.695312 C 227.789062 324.152344 227.546875 324.722656 226.753906 325.773438 C 226.21875 326.484375 225.710938 327.34375 225.625 327.683594 C 225.417969 328.5 226.355469 332.117188 227.21875 333.839844 C 228.03125 335.46875 229.714844 337.003906 231.230469 337.507812 C 231.84375 337.710938 233.480469 337.992188 234.863281 338.132812 C 238.230469 338.476562 239.285156 338.953125 239.9375 340.429688 C 240.382812 341.425781 240.425781 341.863281 240.304688 344.089844 C 240.21875 345.707031 239.90625 347.671875 239.4375 349.558594 C 239.03125 351.179688 238.699219 352.941406 238.699219 353.46875 C 238.699219 355.316406 237.734375 359.140625 235.835938 364.824219 C 233.4375 372.003906 232.964844 373.941406 232.785156 377.296875 L 232.636719 379.980469 L 233.53125 380.96875 C 236.097656 383.800781 237.441406 387.109375 237.660156 391.117188 C 237.835938 394.382812 238.050781 395.101562 239.148438 396.09375 C 240.367188 397.191406 242.167969 397.839844 245.074219 398.21875 C 250.496094 398.929688 252.566406 398.496094 254.914062 396.15625 C 256.15625 394.914062 256.464844 394.429688 256.890625 393.058594 C 257.386719 391.445312 257.507812 389.273438 257.179688 387.773438 C 257.09375 387.378906 257.101562 386.410156 257.195312 385.617188 C 257.679688 381.617188 258.140625 374.058594 258.46875 364.800781 C 259.003906 349.722656 259.625 341.628906 260.28125 341.222656 C 261.023438 340.765625 263.960938 340.414062 266.738281 340.453125 C 268.753906 340.480469 271.617188 340.769531 275.488281 341.34375 C 284.777344 342.722656 287.980469 342.71875 290.878906 341.324219 C 294.210938 339.722656 295.589844 335.765625 295.054688 329.355469 C 294.765625 325.894531 294.230469 324.472656 292.890625 323.585938 C 291.546875 322.695312 290.558594 322.527344 285.433594 322.324219 C 280.167969 322.117188 278.753906 321.902344 277.234375 321.0625 C 276.699219 320.769531 276 320.386719 275.675781 320.210938 C 275.351562 320.03125 273.667969 319.730469 271.933594 319.542969 C 264.351562 318.707031 262.554688 318.238281 260.6875 316.605469 C 259.742188 315.773438 258.460938 313.449219 258.207031 312.105469 C 258.082031 311.433594 257.875 311.195312 257.183594 310.902344 C 254.878906 309.929688 252.597656 309.664062 250.96875 310.183594 M 188.519531 322.746094 C 188.269531 323.371094 186.394531 327.328125 184.351562 331.539062 C 182.308594 335.75 180.101562 340.433594 179.445312 341.949219 C 178.246094 344.71875 176.09375 350.824219 176.257812 350.988281 C 176.339844 351.074219 188.152344 350.496094 192.863281 350.175781 L 195.082031 350.027344 L 195.082031 349.066406 C 195.082031 348.539062 194.792969 346.875 194.4375 345.367188 L 193.789062 342.628906 L 194.316406 339.410156 L 194.839844 336.195312 L 192.832031 332.191406 L 190.824219 328.183594 L 190.945312 326.484375 C 191.019531 325.464844 190.953125 324.4375 190.777344 323.910156 C 190.496094 323.0625 189.453125 321.605469 189.128906 321.609375 C 189.042969 321.609375 188.765625 322.121094 188.519531 322.746094 M 312.515625 328.1875 C 307.144531 329.261719 302.21875 332.246094 300.40625 335.519531 C 299.808594 336.597656 299.695312 337.070312 299.695312 338.476562 C 299.695312 339.878906 299.808594 340.359375 300.394531 341.417969 C 300.78125 342.109375 301.667969 343.167969 302.367188 343.761719 C 304.316406 345.429688 304.394531 345.953125 303.214844 349.636719 C 301.492188 355.015625 300.710938 359.742188 299.695312 370.902344 C 298.695312 381.890625 297.519531 388.761719 296.398438 390.1875 C 295.699219 391.074219 294.496094 391.542969 293.699219 391.242188 C 291.609375 390.445312 289.359375 391.578125 287.289062 394.46875 C 286.21875 395.964844 286.363281 396.777344 288.1875 399.507812 C 289.046875 400.785156 289.746094 402.011719 289.746094 402.226562 C 289.746094 403.019531 291.382812 405.992188 292.5 407.226562 C 294.363281 409.289062 296.414062 410.585938 299.597656 411.71875 C 302.953125 412.914062 304.957031 413.988281 307.175781 415.78125 C 308.070312 416.5 309.191406 417.195312 309.671875 417.328125 C 311.339844 417.789062 315.53125 418.261719 319.105469 418.398438 C 321.082031 418.472656 325.207031 418.652344 328.273438 418.796875 C 334.589844 419.09375 334.171875 419.164062 337.4375 417.191406 C 340.554688 415.308594 341.777344 414.941406 346.1875 414.5625 C 350.417969 414.199219 351.136719 414.039062 352.65625 413.148438 C 353.839844 412.457031 354.332031 411.742188 355.410156 409.132812 C 355.96875 407.78125 356.429688 407.066406 357.117188 406.5 C 358.578125 405.285156 359.355469 402.894531 359.363281 399.578125 C 359.367188 397.121094 359.339844 396.992188 358.640625 395.992188 C 357.742188 394.714844 355.976562 393.773438 353.496094 393.246094 C 351.949219 392.917969 350.753906 392.890625 344.867188 393.070312 C 329.308594 393.535156 326.125 393.332031 323.007812 391.675781 C 320.324219 390.246094 319.980469 389.253906 320.546875 384.578125 C 320.765625 382.78125 321.09375 380.960938 321.28125 380.527344 C 321.851562 379.210938 323.355469 378.9375 325.511719 379.757812 C 327.910156 380.664062 334.667969 381.078125 337.320312 380.480469 C 339.808594 379.914062 341.582031 378.316406 342.316406 375.96875 C 342.507812 375.355469 342.796875 373.847656 342.953125 372.625 C 343.230469 370.4375 343.226562 370.378906 342.617188 369.15625 C 340.445312 364.800781 339.386719 364.308594 334.789062 365.515625 C 331.929688 366.261719 330.734375 366.261719 327.214844 365.511719 C 323.503906 364.71875 320.96875 363.871094 319.601562 362.96875 C 316.992188 361.242188 316.496094 358.359375 318.007812 353.710938 L 318.8125 351.238281 L 320.753906 351.394531 C 323.367188 351.609375 327.703125 352.492188 331.925781 353.664062 C 333.839844 354.195312 336.953125 355.058594 338.84375 355.585938 C 344.667969 357.199219 347.777344 357.777344 351.421875 357.917969 C 356.101562 358.101562 359.390625 357.417969 362.164062 355.679688 C 363.785156 354.660156 365.183594 349.898438 364.546875 347.546875 C 363.933594 345.277344 362.269531 343.796875 357.691406 341.445312 C 353.773438 339.433594 351.101562 337.632812 349.894531 336.199219 C 347.671875 333.542969 346.550781 333.242188 334.804688 332.121094 C 331.769531 331.832031 329.703125 331.355469 324.496094 329.746094 C 318.058594 327.753906 316.011719 327.488281 312.515625 328.1875 "/>
</g>
</svg>
